<?xml version="1.0" encoding="UTF-8"?>
<svg id="Calque_1" data-name="Calque 1" xmlns="http://www.w3.org/2000/svg" viewBox="0 0 595.28 841.89">
  <defs>
    <style>
      .cls-1 {
        fill: #fff;
        stroke-width: 0px;
      }
    </style>
  </defs>
  <path class="cls-1" d="M345.73,334.06l32.61,18.83c9.42,5.44,21.2-1.36,21.2-12.24v-37.65c0-10.88-11.78-17.68-21.2-12.24l-32.61,18.83c-9.42,5.44-9.42,19.04,0,24.47Z"/>
  <path class="cls-1" d="M391.42,218.58l-192.64,98.28c-4.06,2.07-4.06,7.87,0,9.94l192.64,98.28c3.71,1.89,8.12-.8,8.12-4.97v-22c0-2.11-1.19-4.05-3.09-4.99l-132.62-66.29c-4.11-2.06-4.11-7.93,0-9.98l132.62-66.29c1.89-.95,3.09-2.88,3.09-4.99v-22c0-4.17-4.4-6.86-8.12-4.97Z"/>
</svg>