<?xml version="1.0" encoding="UTF-8"?>
<svg id="Calque_1" data-name="Calque 1" xmlns="http://www.w3.org/2000/svg" viewBox="0 0 595.28 841.89">
  <defs>
    <style>
      .cls-1 {
        fill: #fff;
        stroke-width: 0px;
      }
    </style>
  </defs>
  <path class="cls-1" d="M57.36,627.32c44.69,44.69,117.14,44.69,161.82,0,44.69-44.69,44.69-117.14,0-161.82-44.69-44.69-117.14-44.69-161.82,0-44.69,44.69-44.69,117.14,0,161.82ZM194.21,490.47c30.89,30.89,30.89,80.98,0,111.88s-80.98,30.89-111.88,0-30.89-80.98,0-111.88c30.89-30.89,80.98-30.89,111.88,0Z"/>
  <rect class="cls-1" x="255.04" y="283.16" width="67.64" height="225.33" transform="translate(213.23 879.96) rotate(-135)"/>
  <polygon class="cls-1" points="392.44 340.07 426.19 306.32 387.6 327.29 422.01 283.62 411.54 273.15 364.44 301.48 368.43 268.42 344.61 292.24 392.44 340.07"/>
  <polygon class="cls-1" points="472.33 278.7 428.89 285.18 476.18 255.94 469.93 242.51 415.98 253 431.05 223.31 541.34 171.97 582.84 263.15 558.92 274.29 545.44 242.79 534.61 248 547.58 278.6 533.83 284.12 523.16 255.04 472.33 278.7"/>
  <polygon class="cls-1" points="393.14 263.52 420.69 182.88 393.14 216.38 329.87 152.61 361.88 227.29 296.37 241.69 393.14 263.52"/>
  <polygon class="cls-1" points="417.82 332.36 432.21 317.97 432.6 390.81 417.82 332.36"/>
  <polygon class="cls-1" points="459.74 316.03 530.86 356.07 456.59 297.34 459.74 316.03"/>
</svg>