<?xml version="1.0" encoding="UTF-8"?>
<svg id="Calque_1" data-name="Calque 1" xmlns="http://www.w3.org/2000/svg" viewBox="0 0 1400 1400">
  <defs>
    <style>
      .cls-1 {
        fill: #1a1a1a;
      }

      .cls-1, .cls-2 {
        stroke-width: 0px;
      }

      .cls-2 {
        fill: #fff;
      }
    </style>
  </defs>
  <path class="cls-2" d="M363.28,527h647.18c-108.47,184.87-215.21,366.77-325.15,554.15-107.95-185.75-213.45-367.3-322.03-554.15Z"/>
  <path class="cls-2" d="M1028.21,540.91c55.55,158.77,108.66,310.57,162.87,465.51-163.76,30.29-323.85,59.91-489.27,90.51,109.38-186.33,216.23-368.35,326.4-556.03Z"/>
  <path class="cls-2" d="M368.08,501.52c108.56-126.24,213.6-248.39,320.65-372.88,105.04,124.44,208.3,246.76,314.75,372.88H368.08Z"/>
  <path class="cls-2" d="M667.05,1094.2c-164.02-30.35-319.95-59.2-479.43-88.71,52.71-153.96,104.72-305.87,158.65-463.39,107.34,184.74,211.77,364.48,320.79,552.1Z"/>
  <path class="cls-2" d="M1190.41,939.21c-49.34-140.55-97.37-277.39-146.17-416.42,47.36-29.15,93.46-57.53,146.17-89.98v506.4Z"/>
  <path class="cls-2" d="M1033.87,504.54c-97.03-114.86-193.48-229.04-289.94-343.22,1.24-1.83,2.49-3.65,3.73-5.48,140.89,86.88,281.79,173.75,425.97,262.66-48.73,30-93.19,57.37-139.76,86.05Z"/>
  <path class="cls-2" d="M181.81,940.75c5.09-166.87,10.18-333.73,15.58-510.41,48.89,31.39,91.05,58.47,134.88,86.61-48.95,142.38-97.48,283.53-146.01,424.68-1.48-.3-2.97-.59-4.45-.89Z"/>
  <path class="cls-2" d="M701.53,1272.63c0-48.58-.5-93.36.59-138.11.15-6.12,7.39-16.4,12.74-17.42,139.87-26.75,279.93-52.52,419.96-78.46,1,2.46,2,4.92,3.01,7.38-145.36,75.5-290.72,151-436.3,226.61Z"/>
  <path class="cls-2" d="M252.55,1039.89c51.07,9.16,102.17,18.15,153.2,27.52,79.26,14.55,158.22,31,237.83,43.21,31.27,4.8,38.52,17.34,36.01,46.86-3.15,37.04-.76,74.54-.76,119.56-148.18-80.2-288.19-155.97-428.2-231.75.64-1.8,1.28-3.6,1.91-5.4Z"/>
  <path class="cls-2" d="M210.47,415.43c140.46-85.93,275.72-168.69,410.99-251.44,1.37,1.8,2.73,3.61,4.1,5.41-94.03,109.39-188.06,218.79-282.71,328.9-43.65-27.33-85.19-53.33-132.38-82.87Z"/>
  <path class="cls-1" d="M696.49,678.7c15.1-6.88,25.37-22.52,24.26-40.44-1.28-20.59-17.88-37.34-38.46-38.77-24.28-1.7-44.5,17.5-44.5,41.42,0,17.12,10.36,31.81,25.14,38.16l-41.11,182.29c-.42,1.87,1,3.65,2.92,3.65h110.01c1.92,0,3.34-1.78,2.92-3.65l-41.19-182.65Z"/>
</svg>