<?xml version="1.0" encoding="UTF-8"?>
<svg id="Calque_1" data-name="Calque 1" xmlns="http://www.w3.org/2000/svg" viewBox="0 0 1400 1690">
  <defs>
    <style>
      .cls-1, .cls-2 {
        stroke-width: 0px;
      }

      .cls-2 {
        fill: #fff;
      }
    </style>
  </defs>
  <path class="cls-2" d="M397.28,424h647.18c-108.47,184.87-215.21,366.77-325.15,554.15-107.95-185.75-213.45-367.3-322.03-554.15Z"/>
  <path class="cls-2" d="M1062.21,437.91c55.55,158.77,108.66,310.57,162.87,465.51-163.76,30.29-323.85,59.91-489.27,90.51,109.38-186.33,216.23-368.35,326.4-556.03Z"/>
  <path class="cls-2" d="M402.08,398.52c108.56-126.24,213.6-248.39,320.65-372.88,105.04,124.44,208.3,246.76,314.75,372.88H402.08Z"/>
  <path class="cls-2" d="M701.05,991.2c-164.02-30.35-319.95-59.2-479.43-88.71,52.71-153.96,104.72-305.87,158.65-463.39,107.34,184.74,211.77,364.48,320.79,552.1Z"/>
  <path class="cls-2" d="M1224.41,836.21c-49.34-140.55-97.37-277.39-146.17-416.42,47.36-29.15,93.46-57.53,146.17-89.98v506.4Z"/>
  <path class="cls-2" d="M1067.87,401.54c-97.03-114.86-193.48-229.04-289.94-343.22,1.24-1.83,2.49-3.65,3.73-5.48,140.89,86.88,281.79,173.75,425.97,262.66-48.73,30-93.19,57.37-139.76,86.05Z"/>
  <path class="cls-2" d="M215.81,837.75c5.09-166.87,10.18-333.73,15.58-510.41,48.89,31.39,91.05,58.47,134.88,86.61-48.95,142.38-97.48,283.53-146.01,424.68-1.48-.3-2.97-.59-4.45-.89Z"/>
  <path class="cls-2" d="M735.53,1169.63c0-48.58-.5-93.36.59-138.11.15-6.12,7.39-16.4,12.74-17.42,139.87-26.75,279.93-52.52,419.96-78.46,1,2.46,2,4.92,3.01,7.38-145.36,75.5-290.72,151-436.3,226.61Z"/>
  <path class="cls-2" d="M286.55,936.89c51.07,9.16,102.17,18.15,153.2,27.52,79.26,14.55,158.22,31,237.83,43.21,31.27,4.8,38.52,17.34,36.01,46.86-3.15,37.04-.76,74.54-.76,119.56-148.18-80.2-288.19-155.97-428.2-231.75.64-1.8,1.28-3.6,1.91-5.4Z"/>
  <path class="cls-2" d="M244.47,312.43c140.46-85.93,275.72-168.69,410.99-251.44,1.37,1.8,2.73,3.61,4.1,5.41-94.03,109.39-188.06,218.79-282.71,328.9-43.65-27.33-85.19-53.33-132.38-82.87Z"/>
  <g>
    <path class="cls-2" d="M221.7,1328.2h67.11l15.82,73.47,16.37,77.11,15.46-77.11,16.37-73.47h47.83l-52.74,213.14h-66.01l-60.2-213.14Z"/>
    <path class="cls-2" d="M479.76,1527.15c-1.21,1.45-3.06,3.15-5.55,5.09-2.49,1.94-5.34,3.88-8.55,5.82-3.22,1.94-7.12,3.6-11.73,5-4.61,1.39-9.34,2.09-14.18,2.09-32.74,0-49.1-16.19-49.1-48.56,0-6.3,1.15-12.09,3.46-17.37,2.3-5.27,5.27-9.73,8.91-13.37,3.64-3.64,8-6.88,13.09-9.73,5.09-2.85,10.21-5.09,15.37-6.73,5.15-1.64,10.58-3,16.28-4.09,5.7-1.09,10.79-1.82,15.28-2.18,4.48-.36,8.79-.54,12.91-.54v-3.27c0-7.39-1.97-12.61-5.91-15.64-3.94-3.03-10.28-4.55-19-4.55-7.52,0-15.34.88-23.46,2.64-8.12,1.76-14.49,3.85-19.1,6.27l-11.64-24.73c8.24-5.33,18.97-10.03,32.19-14.09,13.21-4.06,26.67-6.09,40.37-6.09,12.12,0,22.12,1.18,30.01,3.55,7.88,2.36,14.28,6.36,19.19,12,4.91,5.64,8.4,12.79,10.46,21.46,2.06,8.67,3.09,19.67,3.09,33.01v74.02l5.09,14.18h-49.83l-5.82-16.19-1.82,2ZM471.66,1512.15c1.39-.67,2.82-1.67,4.27-3v-43.65c-7.4,0-13.28,2.03-17.64,6.09-4.36,4.06-6.55,10.34-6.55,18.82,0,15.16,5.15,22.73,15.46,22.73,1.57,0,3.06-.33,4.46-1Z"/>
    <path class="cls-2" d="M639.7,1523.88c-2.25,2.79-5.18,5.85-8.82,9.18-3.64,3.34-8.12,6.18-13.46,8.55-5.34,2.36-10.73,3.55-16.19,3.55-17.09,0-29.31-5.09-36.64-15.28-7.34-10.19-11-27.16-11-50.92v-64.74l-6.36-6.55v-20.91h66.01v103.66c-.12,5.46.79,9.49,2.73,12.09,1.94,2.61,5.46,3.91,10.55,3.91.73,0,1.39-.03,2-.09.61-.06,1.21-.18,1.82-.36.61-.18,1.12-.33,1.55-.46.42-.12.94-.33,1.55-.64.61-.3,1.09-.57,1.46-.82.36-.24.85-.57,1.46-1,.6-.42,1.06-.76,1.36-1,.3-.24.79-.64,1.45-1.18.67-.55,1.18-.94,1.55-1.18v-85.47l-9.82-6.55v-20.91h69.29v154.58h-50.38l-5.64-24.19c-.73,1.7-2.21,3.94-4.46,6.73Z"/>
    <path class="cls-2" d="M723.44,1335.65l-10.91-6.55v-16.91l58.38-9.09h11.82v238.24h-59.29v-205.69Z"/>
    <path class="cls-2" d="M815.01,1530.43c-6.49-9.82-9.73-26.43-9.73-49.83v-61.83h-12.55v-25.28l21.46-6.73,18.55-42.37h32.01v42.37h29.83v32.01h-30.37v67.65c0,9.7,1.39,16.13,4.18,19.28,2.79,3.15,7.09,4.73,12.91,4.73,2.55,0,4.85-.3,6.91-.91,2.06-.6,3.76-1.45,5.09-2.55v24.73c-1.82,1.82-4.18,3.61-7.09,5.37-2.91,1.76-7.73,3.55-14.46,5.36-6.73,1.82-14.22,2.73-22.46,2.73-16.37,0-27.8-4.91-34.28-14.73Z"/>
    <path class="cls-2" d="M910.38,1423.67l-10.91-6.73v-19.46l39.1-10.73h30.37v154.58h-58.56v-117.66ZM906.93,1340.02v-6.36l29.82-29.82h6.91l31.1,29.82v6.36l-31.1,30.01h-6.91l-29.82-30.01Z"/>
    <path class="cls-2" d="M998.4,1541.34v-122.58h-17.64v-24.19l18.37-7.82v-15.82c0-12.25,1.7-22.85,5.09-31.83,3.39-8.97,8.15-15.94,14.28-20.91,6.12-4.97,12.91-8.57,20.37-10.82,7.46-2.24,15.79-3.36,25.01-3.36,8.24,0,16,1.09,23.28,3.27,7.27,2.18,11.82,4.18,13.64,6l-6.91,27.64c-5.82-2.91-11.82-4.36-18-4.36-1.58,0-3.03.12-4.36.36-9.34,1.46-14,9.4-14,23.83v26.01h23.46v32.01h-23.46v122.58h-59.11Z"/>
    <path class="cls-2" d="M1135.7,1598.44c-11.03-3.64-19.1-8.55-24.19-14.73l9.46-19.64c7.03,4,18.19,6,33.46,6,4.85,0,9.03-.55,12.55-1.64,3.52-1.09,6.67-3,9.46-5.73,2.79-2.73,4.91-6.58,6.36-11.55,1.46-4.97,2.24-11.09,2.36-18.37v-15.64l-1.82,2.91c-1.21,1.94-3.06,4.27-5.55,7-2.49,2.73-5.31,5.46-8.46,8.18-3.15,2.73-7,5.06-11.55,7-4.55,1.94-9.18,2.91-13.91,2.91-18.07,0-30.8-5.06-38.19-15.19-7.4-10.12-11.09-27.19-11.09-51.19v-64.56l-6.55-6.55v-20.91h66.2v103.48c0,5.58.88,9.67,2.64,12.28,1.76,2.61,5.3,3.91,10.64,3.91,1.57,0,3.15-.27,4.73-.82,1.57-.55,3.12-1.3,4.64-2.27,1.51-.97,3.12-2.18,4.82-3.64v-85.47l-10-6.55v-20.91h69.29v133.3c0,26.79-5.7,47.47-17.09,62.02-11.4,14.55-29.04,21.82-52.92,21.82-12.49,0-24.25-1.82-35.28-5.46Z"/>
  </g>
  <path class="cls-1" d="M736.49,586.7c15.1-6.88,25.37-22.52,24.26-40.44-1.28-20.59-17.88-37.34-38.46-38.77-24.28-1.7-44.5,17.5-44.5,41.42,0,17.12,10.36,31.81,25.14,38.16l-41.11,182.29c-.42,1.87,1,3.65,2.92,3.65h110.01c1.92,0,3.34-1.78,2.92-3.65l-41.19-182.65Z"/>
</svg>