<?xml version="1.0" encoding="utf-8"?>
<!-- Generator: Adobe Illustrator 27.3.1, SVG Export Plug-In . SVG Version: 6.00 Build 0)  -->
<svg version="1.1" id="Calque_1" xmlns="http://www.w3.org/2000/svg" xmlns:xlink="http://www.w3.org/1999/xlink" x="0px" y="0px"
	 viewBox="0 0 500 58" style="enable-background:new 0 0 500 58;" xml:space="preserve">
<style type="text/css">
	.st0{fill-rule:evenodd;clip-rule:evenodd;fill:none;stroke:#E2B356;stroke-width:2;stroke-miterlimit:10;}
	.st1{fill-rule:evenodd;clip-rule:evenodd;fill:none;stroke:#E2B356;stroke-miterlimit:10;}
	.st2{fill-rule:evenodd;clip-rule:evenodd;fill:#E2B356;}
</style>
<rect x="466.04" y="25.49" transform="matrix(0.7071 -0.7071 0.7071 0.7071 114.5373 346.5176)" class="st0" width="19.02" height="19.02"/>
<rect x="14.94" y="25.49" transform="matrix(0.7071 -0.7071 0.7071 0.7071 -17.5882 27.5383)" class="st0" width="19.02" height="19.02"/>
<polyline class="st0" points="37.9,35 228.39,35 250,13.39 271.61,35 462.1,35 "/>
<polyline class="st1" points="237,26.39 237,20 250,7 263,20 263,26.39 "/>
<line class="st1" x1="223.97" y1="35.09" x2="236.97" y2="22.09"/>
<line class="st1" x1="263.15" y1="22.45" x2="276.15" y2="35.45"/>
<rect x="17.69" y="28.25" transform="matrix(0.7071 -0.7071 0.7071 0.7071 -17.5882 27.5383)" class="st2" width="13.51" height="13.51"/>
<rect x="468.69" y="28.25" transform="matrix(0.7071 -0.7071 0.7071 0.7071 114.5066 346.4435)" class="st2" width="13.51" height="13.51"/>
</svg>
