<?xml version="1.0" encoding="utf-8"?>
<!-- Generator: Adobe Illustrator 27.3.1, SVG Export Plug-In . SVG Version: 6.00 Build 0)  -->
<svg version="1.1" id="Calque_1" xmlns="http://www.w3.org/2000/svg" xmlns:xlink="http://www.w3.org/1999/xlink" x="0px" y="0px"
	 viewBox="0 0 500 58" style="enable-background:new 0 0 500 58;" xml:space="preserve">
<style type="text/css">
	.st0{fill:none;stroke:#E2B356;stroke-width:2;stroke-miterlimit:10;}
	.st1{fill-rule:evenodd;clip-rule:evenodd;fill:none;stroke:#E2B356;stroke-width:2;stroke-miterlimit:10;}
	.st2{fill-rule:evenodd;clip-rule:evenodd;fill:#E2B356;}
</style>
<g>
	<g>
		<line class="st0" x1="308.68" y1="29" x2="462.1" y2="29"/>
	</g>
	<g>
		<line class="st0" x1="37.28" y1="29" x2="190.71" y2="29"/>
	</g>
	
		<rect x="466.04" y="19.49" transform="matrix(0.7071 -0.7071 0.7071 0.7071 118.78 344.7603)" class="st1" width="19.02" height="19.02"/>
	
		<rect x="14.94" y="19.49" transform="matrix(0.7071 -0.7071 0.7071 0.7071 -13.3456 25.7809)" class="st1" width="19.02" height="19.02"/>
	<g>
		
			<rect x="198.04" y="13.72" transform="matrix(0.7071 -0.7071 0.7071 0.7071 41.9753 159.3373)" class="st1" width="30.56" height="30.56"/>
		
			<rect x="222.49" y="13.72" transform="matrix(0.7071 -0.7071 0.7071 0.7071 49.1366 176.6262)" class="st1" width="30.56" height="30.56"/>
		
			<rect x="246.94" y="13.72" transform="matrix(0.7071 -0.7071 0.7071 0.7071 56.2978 193.915)" class="st1" width="30.56" height="30.56"/>
		
			<rect x="271.39" y="13.72" transform="matrix(0.7071 -0.7071 0.7071 0.7071 63.4591 211.2039)" class="st1" width="30.56" height="30.56"/>
		
			<rect x="274.57" y="16.9" transform="matrix(0.7071 -0.7071 0.7071 0.7071 63.4591 211.2039)" class="st2" width="24.2" height="24.2"/>
		
			<rect x="225.67" y="16.9" transform="matrix(0.7071 -0.7071 0.7071 0.7071 49.1366 176.6262)" class="st2" width="24.2" height="24.2"/>
	</g>
</g>
</svg>
